<?xml version="1.0" encoding="UTF-8"?>
<svg version="1.1" xmlns="http://www.w3.org/2000/svg" width="512" height="512">
<path d="M0 0 C10.26121972 6.95652379 17.97741932 16.7265513 20.76953125 28.97265625 C21.39864144 33.71517923 21.21737933 38.49751196 21.07421875 43.26953125 C22.15445312 43.37265625 23.2346875 43.47578125 24.34765625 43.58203125 C29.93666646 44.28832126 35.28146065 45.75788187 40.69921875 47.26953125 C41.79443848 47.57060791 42.8896582 47.87168457 44.01806641 48.18188477 C51.46617859 50.30907248 58.39286011 53.03889599 65.44921875 56.20703125 C75.58466961 60.63657847 84.14656491 61.55249688 95.07421875 60.26953125 C95.82074707 60.18590332 96.56727539 60.10227539 97.33642578 60.01611328 C113.79029484 58.00552288 129.541479 52.13512197 142.3203125 41.37109375 C144.07421875 40.26953125 144.07421875 40.26953125 148.07421875 40.26953125 C148.40421875 43.23953125 148.73421875 46.20953125 149.07421875 49.26953125 C165.18594967 42.40582515 165.18594967 42.40582515 180.07421875 33.26953125 C180.83476562 32.7178125 181.5953125 32.16609375 182.37890625 31.59765625 C184.66144698 29.87587812 186.87409877 28.09532527 189.07421875 26.26953125 C189.89921875 25.59148438 190.72421875 24.9134375 191.57421875 24.21484375 C197.7960687 18.88453937 202.52435404 13.06891008 207.07421875 6.26953125 C209.38421875 6.59953125 211.69421875 6.92953125 214.07421875 7.26953125 C214.7467607 30.21355862 204.28303765 52.53983046 189.07421875 69.26953125 C188.74421875 69.92953125 188.41421875 70.58953125 188.07421875 71.26953125 C199.34593261 68.90431372 210.14716942 66.31196859 220.65405273 61.50561523 C224.26452814 59.8763165 227.08729235 58.77116545 231.07421875 59.26953125 C232.07421875 60.26953125 232.07421875 60.26953125 232.41015625 63.19921875 C232.32202505 68.44168972 229.97143378 72.76901037 227.69921875 77.39453125 C227.25094727 78.32088379 226.80267578 79.24723633 226.34082031 80.20166016 C222.41830781 88.05626562 217.81044055 94.63702479 212.07421875 101.26953125 C211.49671875 101.98367187 210.91921875 102.6978125 210.32421875 103.43359375 C207.99626329 106.28291424 205.65429379 108.67989771 202.76171875 110.95703125 C199.97097306 112.98563925 199.97097306 112.98563925 199.19921875 115.58203125 C199.15796875 116.13890625 199.11671875 116.69578125 199.07421875 117.26953125 C204.2402757 119.66488923 209.20308533 121.14612438 214.76171875 122.33203125 C224.32466552 124.3900898 224.32466552 124.3900898 227.07421875 126.26953125 C228.07421875 129.08203125 228.07421875 129.08203125 228.07421875 132.26953125 C225.25328255 136.44589289 221.65416343 139.46678429 217.69921875 142.51953125 C217.0870752 142.99551758 216.47493164 143.47150391 215.84423828 143.96191406 C205.83434566 151.63113412 195.01790829 158.03603776 184.07421875 164.26953125 C184.64269531 165.42066406 185.21117187 166.57179687 185.796875 167.7578125 C198.00383977 192.78009785 205.91896402 218.53802634 209.07421875 246.26953125 C209.16848145 247.09549805 209.26274414 247.92146484 209.35986328 248.77246094 C215.42678069 307.83536711 198.67098309 369.56062388 161.62109375 416.16796875 C160.7740136 417.20336235 159.9249982 418.2371752 159.07421875 419.26953125 C158.62111328 419.82415039 158.16800781 420.37876953 157.70117188 420.95019531 C147.00521015 433.97168507 135.40157254 445.92279647 122.07421875 456.26953125 C121.12804687 457.04425781 120.181875 457.81898438 119.20703125 458.6171875 C96.41090362 476.91789556 69.13506764 489.63332463 41.26171875 498.01953125 C40.38773437 498.28902588 39.51375 498.55852051 38.61328125 498.83618164 C19.23115667 504.43128819 0.0666798 505.92254635 -20.03222656 505.79101562 C-23.9218578 505.7695529 -27.80964263 505.79095219 -31.69921875 505.81640625 C-51.38845331 505.83918199 -70.23868215 503.83954729 -89.11328125 498.01953125 C-90.09683594 497.72361084 -91.08039063 497.42769043 -92.09375 497.12280273 C-129.54926745 485.5657725 -161.90215253 465.53435023 -189.92578125 438.26953125 C-190.78816406 437.44710938 -191.65054688 436.6246875 -192.5390625 435.77734375 C-198.15945801 430.32196849 -203.12170374 424.45072489 -207.92578125 418.26953125 C-208.55589111 417.46201416 -208.55589111 417.46201416 -209.19873047 416.63818359 C-233.99531386 384.61500972 -249.72189833 347.2413845 -255.92578125 307.26953125 C-256.0542041 306.4717627 -256.18262695 305.67399414 -256.31494141 304.85205078 C-263.70120739 256.90846979 -253.68290445 207.17941312 -231.92578125 164.26953125 C-233.20582031 163.88474609 -233.20582031 163.88474609 -234.51171875 163.4921875 C-245.41529233 159.58736081 -254.90305589 152.34374508 -263.92578125 145.26953125 C-265.37791016 144.22925781 -265.37791016 144.22925781 -266.859375 143.16796875 C-274.41921359 137.61336394 -274.41921359 137.61336394 -275.23828125 133.45703125 C-274.92578125 130.26953125 -274.92578125 130.26953125 -273.84765625 128.6953125 C-271.05193719 126.62125263 -268.23300098 126.09225021 -264.86328125 125.26953125 C-263.5166103 124.93225191 -262.17025625 124.59370478 -260.82421875 124.25390625 C-260.16389648 124.08955078 -259.50357422 123.92519531 -258.82324219 123.75585938 C-254.81846356 122.72941586 -250.87311034 121.49552523 -246.92578125 120.26953125 C-247.24168231 115.05237738 -250.22664513 112.66109373 -253.86328125 109.33203125 C-264.82211833 98.80907415 -278.93924327 81.84789051 -280.17578125 66.08203125 C-279.92578125 63.26953125 -279.92578125 63.26953125 -277.92578125 61.26953125 C-273.76792374 61.61795506 -270.43757075 62.7816285 -266.67578125 64.51953125 C-261.3911929 66.79759941 -256.08737567 68.49398203 -250.55078125 70.01953125 C-249.78991211 70.2299707 -249.02904297 70.44041016 -248.24511719 70.65722656 C-244.15914014 71.75653611 -240.11917471 72.65716268 -235.92578125 73.26953125 C-237.83011929 69.88144517 -239.80505147 67.25396173 -242.55078125 64.51953125 C-254.88344659 50.80142837 -262.48227677 29.68801154 -262.92578125 11.26953125 C-260.92578125 8.26953125 -260.92578125 8.26953125 -258.63671875 7.703125 C-254.62382757 8.54155327 -252.93616349 11.23090788 -250.55078125 14.33203125 C-249.5721768 15.53927403 -248.59171965 16.74501745 -247.609375 17.94921875 C-247.14257324 18.52897461 -246.67577148 19.10873047 -246.19482422 19.70605469 C-233.93905638 34.80531157 -215.15084436 44.40044313 -196.92578125 50.26953125 C-196.94640625 49.15578125 -196.96703125 48.04203125 -196.98828125 46.89453125 C-196.92578125 43.26953125 -196.92578125 43.26953125 -195.92578125 41.26953125 C-191.78447786 41.88004281 -188.74549438 44.22680979 -185.36328125 46.51953125 C-172.89111199 54.70454377 -159.79309223 59.46595582 -144.92578125 61.26953125 C-144.28431152 61.34768066 -143.6428418 61.42583008 -142.98193359 61.50634766 C-131.0065276 62.74577226 -122.16735795 60.28095065 -111.28930664 55.33886719 C-103.80387779 51.95731022 -96.34748938 49.37627949 -88.42578125 47.20703125 C-87.39372559 46.92077881 -86.36166992 46.63452637 -85.29833984 46.33959961 C-79.84112092 44.88119715 -74.54899214 43.81176944 -68.92578125 43.26953125 C-68.9721875 42.4703125 -69.01859375 41.67109375 -69.06640625 40.84765625 C-69.49950297 27.66914192 -65.96984741 16.87376172 -56.9609375 7.1484375 C-41.67777306 -7.47144313 -18.42074688 -10.89504789 0 0 Z " fill="#5E73DC" transform="translate(279.92578125,6.73046875)"/>
<path d="M0 0 C4.01289118 0.83842827 5.70055526 3.52778288 8.0859375 6.62890625 C9.06454195 7.83614903 10.0449991 9.04189245 11.02734375 10.24609375 C11.49414551 10.82584961 11.96094727 11.40560547 12.44189453 12.00292969 C24.69766237 27.10218657 43.48587439 36.69731813 61.7109375 42.56640625 C61.6903125 41.45265625 61.6696875 40.33890625 61.6484375 39.19140625 C61.7109375 35.56640625 61.7109375 35.56640625 62.7109375 33.56640625 C66.85224089 34.17691781 69.89122437 36.52368479 73.2734375 38.81640625 C85.74560676 47.00141877 98.84362652 51.76283082 113.7109375 53.56640625 C114.35240723 53.64455566 114.99387695 53.72270508 115.65478516 53.80322266 C127.63019115 55.04264726 136.4693608 52.57782565 147.34741211 47.63574219 C154.83284096 44.25418522 162.28922937 41.67315449 170.2109375 39.50390625 C171.24299316 39.21765381 172.27504883 38.93140137 173.33837891 38.63647461 C178.79559783 37.17807215 184.08772661 36.10864444 189.7109375 35.56640625 C189.95328125 36.41203125 190.195625 37.25765625 190.4453125 38.12890625 C194.015997 50.35483199 194.015997 50.35483199 201.4609375 60.37890625 C204.46644023 63.63274501 205.11016508 65.5205392 204.9609375 69.94140625 C204.86619141 71.33359375 204.86619141 71.33359375 204.76953125 72.75390625 C204.65486784 78.25775012 206.38429162 83.55186992 209.3984375 88.12890625 C211.38913762 91.82592075 210.95293355 95.4524734 210.7109375 99.56640625 C211.7009375 99.89640625 212.6909375 100.22640625 213.7109375 100.56640625 C214.43951514 111.16338683 214.79233579 121.71290558 214.73828125 132.3359375 C214.73277252 133.47199432 214.72726379 134.60805115 214.72158813 135.77853394 C214.69435663 140.45832288 214.66050758 145.13797867 214.61499023 149.81762695 C214.45962743 167.00662495 215.0506368 184.04703349 216.02580547 201.20053768 C216.07183312 202.01051991 216.11786077 202.82050215 216.1652832 203.6550293 C216.21164067 204.46970201 216.25799814 205.28437471 216.30576038 206.12373447 C217.09060884 220.11507213 217.60231034 234.12009339 218.14355469 248.12255859 C218.27222164 251.44723696 218.40417832 254.77175951 218.5390625 258.09619141 C219.27564349 276.25830391 219.96247209 294.38477441 219.7109375 312.56640625 C211.49833794 310.65878745 203.57289683 308.31651917 195.6484375 305.44140625 C194.57513184 305.0532373 193.50182617 304.66506836 192.39599609 304.26513672 C185.40596582 301.68549504 178.57512094 298.86938274 171.8359375 295.69140625 C171.05210693 295.32257324 170.26827637 294.95374023 169.46069336 294.57373047 C163.05011294 291.4499459 163.05011294 291.4499459 160.7109375 288.56640625 C160.4609375 285.12890625 160.4609375 285.12890625 161.7109375 281.56640625 C163.90169935 280.15496679 166.03499858 279.27224094 168.484375 278.390625 C170.94524517 277.57728955 170.94524517 277.57728955 173.7109375 275.56640625 C177.29957656 275.68700206 180.8083679 275.99046654 184.375 276.37695312 C189.08020713 276.78413451 191.86968284 276.70318371 195.7109375 273.56640625 C197.4450555 270.09817024 197.31123374 266.35029604 196.7109375 262.56640625 C194.25558138 259.830438 192.5949994 258.77200204 189.0234375 257.94140625 C186.7109375 256.56640625 186.7109375 256.56640625 186.09375 254.43359375 C185.79138249 252.65652156 185.49874159 250.87777246 185.21484375 249.09765625 C184.01794864 243.08534591 179.9857025 239.44123839 175.1953125 236.01953125 C162.63392913 228.67230702 147.5749951 226.20035061 133.35546875 229.4375 C125.31042521 231.59958203 118.76892294 234.74623428 112.7109375 240.56640625 C111.74414062 241.41912109 111.74414062 241.41912109 110.7578125 242.2890625 C104.26094383 248.28092248 101.51558229 253.52365246 101.1484375 262.44140625 C101.52121259 272.73657707 105.52265364 279.23969432 112.81274414 286.39135742 C135.14180058 306.81869445 168.32298252 317.25976763 196.46484375 326.62890625 C198.7109375 327.56640625 198.7109375 327.56640625 199.7109375 329.56640625 C199.08751465 329.79714844 198.4640918 330.02789062 197.82177734 330.265625 C167.59003491 341.12644769 167.59003491 341.12644769 145.61328125 363.53515625 C142.75921769 370.22561223 142.81426889 376.66200835 145.1484375 383.50390625 C153.82840923 403.07936697 177.54140947 412.67136015 195.703125 421.57861328 C199.04764724 423.22403363 202.37864276 424.89640206 205.7109375 426.56640625 C206.8659375 427.14390625 208.0209375 427.72140625 209.2109375 428.31640625 C210.0359375 428.72890625 210.8609375 429.14140625 211.7109375 429.56640625 C208.46021643 432.29187616 205.29468849 434.44593122 201.5234375 436.37890625 C195.91947793 439.37968781 190.79440124 442.75576062 185.7109375 446.56640625 C184.77894531 447.25734375 183.84695312 447.94828125 182.88671875 448.66015625 C174.44251647 455.20354902 168.32585307 462.40412146 164.7109375 472.56640625 C164.38670973 475.3965186 164.42197875 478.16045988 164.5234375 481.00390625 C164.53697266 481.73544922 164.55050781 482.46699219 164.56445312 483.22070312 C164.59939876 485.00293047 164.65318945 486.78477198 164.7109375 488.56640625 C141.68754719 481.29165445 120.45311782 471.64983823 100.7109375 457.56640625 C100.11635742 457.14697754 99.52177734 456.72754883 98.90917969 456.29541016 C88.00053683 448.55531019 78.27858208 439.89485971 68.7109375 430.56640625 C67.8240625 429.71949219 66.9371875 428.87257813 66.0234375 428 C60.42847323 422.57016489 55.492899 416.71914419 50.7109375 410.56640625 C50.08082764 409.75888916 50.08082764 409.75888916 49.43798828 408.93505859 C24.64140489 376.91188472 8.91482042 339.5382595 2.7109375 299.56640625 C2.58251465 298.7686377 2.4540918 297.97086914 2.32177734 297.14892578 C-5.06448864 249.20534479 4.9538143 199.47628812 26.7109375 156.56640625 C25.43089844 156.18162109 25.43089844 156.18162109 24.125 155.7890625 C13.22142642 151.88423581 3.73366286 144.64062008 -5.2890625 137.56640625 C-6.74119141 136.52613281 -6.74119141 136.52613281 -8.22265625 135.46484375 C-15.78249484 129.91023894 -15.78249484 129.91023894 -16.6015625 125.75390625 C-16.2890625 122.56640625 -16.2890625 122.56640625 -15.2109375 120.9921875 C-12.41521844 118.91812763 -9.59628223 118.38912521 -6.2265625 117.56640625 C-4.87989155 117.22912691 -3.5335375 116.89057978 -2.1875 116.55078125 C-1.52717773 116.38642578 -0.86685547 116.22207031 -0.18652344 116.05273438 C3.81825519 115.02629086 7.76360841 113.79240023 11.7109375 112.56640625 C11.39503644 107.34925238 8.41007362 104.95796873 4.7734375 101.62890625 C-6.18539958 91.10594915 -20.30252452 74.14476551 -21.5390625 58.37890625 C-21.2890625 55.56640625 -21.2890625 55.56640625 -19.2890625 53.56640625 C-15.13120499 53.91483006 -11.800852 55.0785035 -8.0390625 56.81640625 C-2.75447415 59.09447441 2.54934308 60.79085703 8.0859375 62.31640625 C8.84680664 62.5268457 9.60767578 62.73728516 10.39160156 62.95410156 C14.47757861 64.05341111 18.51754404 64.95403768 22.7109375 65.56640625 C20.80659946 62.17832017 18.83166728 59.55083673 16.0859375 56.81640625 C3.75327216 43.09830337 -3.84555802 21.98488654 -4.2890625 3.56640625 C-2.2890625 0.56640625 -2.2890625 0.56640625 0 0 Z " fill="#5E73DC" transform="translate(21.2890625,14.43359375)"/>
<path d="M0 0 C10.21422641 6.924665 18.10084086 16.76395035 20.7578125 29.01953125 C22.56385263 41.8624833 19.85273795 54.23560833 13.07421875 65.26953125 C11.98281915 66.57200341 10.87884262 67.86405436 9.76171875 69.14453125 C6.38305017 73.38276035 6.93007167 76.78993424 7.26750183 82.00914001 C7.04707727 85.72736673 6.11695295 87.32466053 4.1496582 90.44360352 C-0.27872963 98.89918843 0.03026478 107.40100088 -0.1328125 116.734375 C-0.18659021 118.61755083 -0.24293096 120.500655 -0.30168152 122.38368225 C-0.4492118 127.32182373 -0.56352048 132.26016913 -0.67016602 137.19934082 C-0.78254223 142.16141531 -0.92410368 147.12263519 -1.06445312 152.08398438 C-1.22252373 157.70031292 -1.3784055 163.31653468 -1.50898743 168.93357849 C-1.73811913 178.63401117 -2.07514324 188.31997402 -2.57616901 198.01053524 C-2.8645219 203.63002384 -3.05430232 209.24546594 -3.171875 214.87109375 C-3.20021423 216.22140686 -3.20021423 216.22140686 -3.22912598 217.59899902 C-3.24181519 218.31463013 -3.25450439 219.03026123 -3.26757812 219.76757812 C-3.64347202 240.10717718 -4.24584886 260.43818578 -4.92578125 280.76953125 C-4.96766571 282.05337708 -5.00955017 283.3372229 -5.05270386 284.65997314 C-5.17374 288.35286316 -5.29905904 292.04558244 -5.42578125 295.73828125 C-5.46119522 296.82728729 -5.49660919 297.91629333 -5.53309631 299.03829956 C-5.78418146 306.13847718 -6.27426761 313.1949945 -6.92578125 320.26953125 C7.61130097 315.64916071 22.07988846 311.00152621 36.07421875 304.89453125 C37.00306885 304.49057129 37.93191895 304.08661133 38.88891602 303.67041016 C43.57469756 301.57242922 48.07282031 299.51496517 52.07421875 296.26953125 C52.57547158 292.60095403 52.57547158 292.60095403 52.07421875 289.26953125 C51.48253906 289.08777344 50.89085937 288.90601563 50.28125 288.71875 C43.45910399 286.54857305 43.45910399 286.54857305 40.57421875 284.45703125 C37.10108072 282.80729068 34.96618869 283.74739965 31.34765625 284.703125 C28.11593665 285.50827851 25.38091903 285.65107359 22.07421875 285.26953125 C19.32092854 283.4739072 17.54794414 282.21698203 16.07421875 279.26953125 C15.49699963 275.55048653 15.00341029 271.8038776 17.23828125 268.6015625 C20.25302518 265.96559409 23.10562567 264.61970123 27.07421875 264.26953125 C26.99171875 263.09390625 26.90921875 261.91828125 26.82421875 260.70703125 C26.86365039 255.10773806 29.05395141 251.4799414 32.734375 247.453125 C42.849742 237.83625658 55.87434337 234.69949228 69.5078125 234.95703125 C83.97930106 236.22506968 96.0275968 241.15876322 106.08984375 251.86328125 C111.7518597 258.72903287 114.01292042 265.08143587 113.61328125 274.03125 C111.67689736 285.66358512 102.74352411 293.98272918 93.63671875 300.70703125 C69.2565943 316.98556875 41.55328021 326.64218401 14.07421875 336.26953125 C14.59105225 336.46474365 15.10788574 336.65995605 15.64038086 336.86108398 C59.05512226 353.39387002 59.05512226 353.39387002 68.39453125 370.71875 C71.58577527 378.00505191 72.18761012 383.59765449 69.63671875 391.14453125 C61.1146353 410.53449812 37.71286416 420.60006165 19.75878906 429.44360352 C14.10849097 432.22710244 8.57172465 435.19465507 3.07421875 438.26953125 C4.50701172 438.9965625 4.50701172 438.9965625 5.96875 439.73828125 C14.20466402 443.98138137 21.76257398 448.53554792 29.07421875 454.26953125 C30.02296875 454.97980469 30.97171875 455.69007813 31.94921875 456.421875 C40.01695063 462.65902098 48.20054287 470.7908254 50.07421875 481.26953125 C50.29702922 485.94855119 50.25168276 490.58973953 50.07421875 495.26953125 C47.0578789 496.2033826 44.03717752 497.11602023 41.01171875 498.01953125 C40.20283203 498.2721875 39.39394531 498.52484375 38.56054688 498.78515625 C19.22271388 504.49374164 0.04641391 505.92241373 -20.03222656 505.79101562 C-23.9218578 505.7695529 -27.80964263 505.79095219 -31.69921875 505.81640625 C-52.80825068 505.83998466 -74.03284947 503.86501429 -93.92578125 496.26953125 C-96.69852861 490.72403653 -95.70851947 482.69284258 -93.8671875 476.9921875 C-84.93851885 458.19116976 -66.42256319 448.03517698 -48.92578125 438.26953125 C-51.64027569 436.11821153 -54.27149528 434.5104976 -57.41796875 433.0703125 C-58.28091553 432.67005859 -59.1438623 432.26980469 -60.03295898 431.85742188 C-60.94634033 431.43654297 -61.85972168 431.01566406 -62.80078125 430.58203125 C-106.20136566 410.18965612 -106.20136566 410.18965612 -114.92578125 390.26953125 C-116.82436383 384.07797534 -116.7025418 377.3426036 -114.1484375 371.3671875 C-102.97759694 352.20187957 -79.45179217 344.00260488 -59.92578125 336.26953125 C-60.85753174 335.94698364 -60.85753174 335.94698364 -61.80810547 335.61791992 C-141.19234719 307.97920759 -141.19234719 307.97920759 -156.05078125 282.51953125 C-159.06749627 275.71313508 -159.04990513 268.17708699 -157.40234375 260.984375 C-153.78654356 252.26707455 -143.44489651 243.0132255 -134.92578125 239.26953125 C-120.0477697 233.43425919 -104.79312214 233.33362135 -89.92578125 239.26953125 C-82.06307194 242.97151243 -75.33553691 248.04232265 -71.92578125 256.26953125 C-71.67941513 258.96970394 -71.83512459 261.54983131 -71.92578125 264.26953125 C-71.22453125 264.33140625 -70.52328125 264.39328125 -69.80078125 264.45703125 C-66.02318442 265.52461296 -63.20139004 267.06402252 -60.92578125 270.26953125 C-59.81491845 274.88002951 -60.29628143 278.22760051 -62.73828125 282.26953125 C-66.55949658 285.76321384 -69.94568829 285.42762944 -74.92578125 285.26953125 C-75.70566406 285.14835937 -76.48554688 285.0271875 -77.2890625 284.90234375 C-83.81507886 283.90770984 -88.2941976 284.72243971 -93.92578125 288.26953125 C-96.04112562 290.11442063 -96.82310493 290.91483123 -97.61328125 293.64453125 C-96.62252316 297.42742577 -94.38772406 298.0896121 -91.13989258 300.02490234 C-79.51069165 306.56208024 -66.85487647 310.77362917 -54.26953125 315.04296875 C-52.77560603 315.55265587 -51.28179009 316.06266342 -49.78808594 316.57299805 C-46.1685649 317.80886743 -42.54759984 319.04041217 -38.92578125 320.26953125 C-38.95892426 319.52643204 -38.99206726 318.78333282 -39.0262146 318.01771545 C-42.24136403 245.89334322 -42.24136403 245.89334322 -43.62701416 210.65742493 C-43.82074781 205.76787905 -44.0333347 200.87990965 -44.26953125 195.9921875 C-45.0582163 178.99120936 -44.99237793 162.00222949 -44.88916016 144.98632812 C-44.82923343 132.7085494 -45.11667791 120.52166757 -45.92578125 108.26953125 C-46.58578125 107.93953125 -47.24578125 107.60953125 -47.92578125 107.26953125 C-48.02890625 105.97015625 -48.13203125 104.67078125 -48.23828125 103.33203125 C-48.65306975 98.42500502 -50.37723294 94.88497186 -52.76953125 90.62890625 C-54.89891172 86.28381908 -54.94895391 82.70077799 -54.55078125 77.95703125 C-54.49712706 73.49777176 -55.05118081 71.46092632 -58.11328125 68.20703125 C-58.75007813 67.57667969 -59.386875 66.94632812 -60.04296875 66.296875 C-68.16149712 57.5551401 -69.55516099 45.71088953 -69.23828125 34.3125 C-68.58324202 22.72649361 -63.05718752 12.98011247 -54.80078125 5.08203125 C-39.54271701 -7.87048508 -17.36662135 -10.27157978 0 0 Z " fill="#FAAC21" transform="translate(279.92578125,6.73046875)"/>
<path d="M0 0 C4.01289118 0.83842827 5.70055526 3.52778288 8.0859375 6.62890625 C9.06454195 7.83614903 10.0449991 9.04189245 11.02734375 10.24609375 C11.49414551 10.82584961 11.96094727 11.40560547 12.44189453 12.00292969 C24.69766237 27.10218657 43.48587439 36.69731813 61.7109375 42.56640625 C61.6903125 41.45265625 61.6696875 40.33890625 61.6484375 39.19140625 C61.7109375 35.56640625 61.7109375 35.56640625 62.7109375 33.56640625 C66.85224089 34.17691781 69.89122437 36.52368479 73.2734375 38.81640625 C85.74560676 47.00141877 98.84362652 51.76283082 113.7109375 53.56640625 C114.35240723 53.64455566 114.99387695 53.72270508 115.65478516 53.80322266 C127.63019115 55.04264726 136.4693608 52.57782565 147.34741211 47.63574219 C154.83284096 44.25418522 162.28922937 41.67315449 170.2109375 39.50390625 C171.24299316 39.21765381 172.27504883 38.93140137 173.33837891 38.63647461 C178.79559783 37.17807215 184.08772661 36.10864444 189.7109375 35.56640625 C189.95328125 36.41203125 190.195625 37.25765625 190.4453125 38.12890625 C194.015997 50.35483199 194.015997 50.35483199 201.4609375 60.37890625 C204.46644023 63.63274501 205.11016508 65.5205392 204.9609375 69.94140625 C204.86619141 71.33359375 204.86619141 71.33359375 204.76953125 72.75390625 C204.65486784 78.25775012 206.38429162 83.55186992 209.3984375 88.12890625 C211.38913762 91.82592075 210.95293355 95.4524734 210.7109375 99.56640625 C211.7009375 99.89640625 212.6909375 100.22640625 213.7109375 100.56640625 C214.53551252 114.14811795 215.07179646 127.72391897 215.22583008 141.33056641 C215.25778338 143.502408 215.30585082 145.6740676 215.36938477 147.84521484 C215.99752931 169.77287149 215.99752931 169.77287149 208.81176758 177.57714844 C208.11849365 178.23360352 207.42521973 178.89005859 206.7109375 179.56640625 C205.74607897 180.68732016 204.78786806 181.81403159 203.83984375 182.94921875 C201.14128168 185.83261383 198.43384691 188.70597616 195.7109375 191.56640625 C194.99292969 192.36046875 194.27492187 193.15453125 193.53515625 193.97265625 C189.12577143 198.68928634 184.31079394 202.52113181 179.0234375 206.19140625 C178.3934082 206.64209473 177.76337891 207.0927832 177.11425781 207.55712891 C174.07267904 209.58618422 172.13326703 210.571452 168.44140625 210.52734375 C165.63948899 209.54126128 164.33329199 209.03883005 162.7109375 206.56640625 C162.3828125 204.296875 162.3828125 204.296875 162.4609375 201.75390625 C162.48671875 200.86316406 162.5125 199.97242188 162.5390625 199.0546875 C162.73752897 196.1814343 163.21767839 193.40264616 163.7109375 190.56640625 C163.79387013 187.89304869 163.75706968 185.24207297 163.7109375 182.56640625 C159.67518134 184.03327703 156.24138539 186.01219182 152.5859375 188.25390625 C126.7890393 203.39889029 95.63669977 206.6823524 66.7109375 199.56640625 C58.9343686 197.18642358 58.9343686 197.18642358 56.43359375 193.875 C55.33675914 190.37105807 55.76577303 188.10413028 56.7109375 184.56640625 C58.31809601 182.2182896 60.23418987 180.29200695 62.2734375 178.31640625 C64.16254071 176.44368932 65.94197487 174.55976777 67.7109375 172.56640625 C67.7109375 171.57640625 67.7109375 170.58640625 67.7109375 169.56640625 C63.58979407 168.11006233 59.56309039 167.07747918 55.2734375 166.25390625 C29.08000972 160.72937426 6.43926411 148.5343591 -13.2890625 130.56640625 C-13.90652344 130.04433594 -14.52398438 129.52226562 -15.16015625 128.984375 C-16.2890625 127.56640625 -16.2890625 127.56640625 -15.9765625 123.87890625 C-15.7496875 122.78578125 -15.5228125 121.69265625 -15.2890625 120.56640625 C-9.71582116 118.35480254 -4.26523671 116.72455849 1.5859375 115.44140625 C6.78506289 114.41381033 6.78506289 114.41381033 11.7109375 112.56640625 C11.39503644 107.34925238 8.41007362 104.95796873 4.7734375 101.62890625 C-6.18539958 91.10594915 -20.30252452 74.14476551 -21.5390625 58.37890625 C-21.2890625 55.56640625 -21.2890625 55.56640625 -19.2890625 53.56640625 C-15.13120499 53.91483006 -11.800852 55.0785035 -8.0390625 56.81640625 C-2.75447415 59.09447441 2.54934308 60.79085703 8.0859375 62.31640625 C8.84680664 62.5268457 9.60767578 62.73728516 10.39160156 62.95410156 C14.47757861 64.05341111 18.51754404 64.95403768 22.7109375 65.56640625 C20.80659946 62.17832017 18.83166728 59.55083673 16.0859375 56.81640625 C3.75327216 43.09830337 -3.84555802 21.98488654 -4.2890625 3.56640625 C-2.2890625 0.56640625 -2.2890625 0.56640625 0 0 Z " fill="#94D5FB" transform="translate(21.2890625,14.43359375)"/>
<path d="M0 0 C2.31 0.33 4.62 0.66 7 1 C7.67254195 23.94402737 -2.7911811 46.27029921 -18 63 C-18.33 63.66 -18.66 64.32 -19 65 C-7.72828614 62.63478247 3.07295067 60.04243734 13.57983398 55.23608398 C17.19030939 53.60678525 20.0130736 52.5016342 24 53 C25 54 25 54 25.3359375 56.9296875 C25.2478063 62.17215847 22.89721503 66.49947912 20.625 71.125 C20.17672852 72.05135254 19.72845703 72.97770508 19.26660156 73.93212891 C15.34408906 81.78673437 10.7362218 88.36749354 5 95 C4.4225 95.71414062 3.845 96.42828125 3.25 97.1640625 C0.92204454 100.01338299 -1.41992496 102.41036646 -4.3125 104.6875 C-7.10324569 106.716108 -7.10324569 106.716108 -7.875 109.3125 C-7.91625 109.869375 -7.9575 110.42625 -8 111 C-2.83394305 113.39535798 2.12886658 114.87659313 7.6875 116.0625 C17.25044677 118.12055855 17.25044677 118.12055855 20 120 C21 122.8125 21 122.8125 21 126 C18.17908198 130.17633472 14.57999471 133.19733978 10.625 136.25 C10.01358154 136.72526123 9.40216309 137.20052246 8.7722168 137.69018555 C2.44843434 142.5339166 -4.13130187 146.96292977 -11 151 C-11.81267334 151.47856445 -12.62534668 151.95712891 -13.46264648 152.45019531 C-20.0029472 156.16881175 -26.52922819 158.84312587 -33.6875 161.125 C-34.72390625 161.46337891 -35.7603125 161.80175781 -36.828125 162.15039062 C-45.13395518 164.82122449 -53.4856783 167.09679868 -62 169 C-62.99431151 170.68276985 -62.99431151 170.68276985 -63 173 C-60.8229131 175.65215569 -58.5261494 177.95484668 -56.046875 180.31445312 C-52.38753681 183.9974917 -51.03770201 186.58976149 -51 192 C-51.62109375 194.3046875 -51.62109375 194.3046875 -53 196 C-73.58043149 206.76514878 -103.2893335 205.26346011 -124.75 198.875 C-134.61895645 195.76063588 -144.63943197 191.61031027 -153.2421875 185.81640625 C-155.64340279 184.23486927 -157.20340608 183.43024522 -160 183 C-159.855625 183.88300781 -159.71125 184.76601562 -159.5625 185.67578125 C-156.91390978 202.79965275 -156.91390978 202.79965275 -158 208 C-159.5859375 209.86328125 -159.5859375 209.86328125 -162 211 C-174.60966353 210.72206078 -186.63798802 197.64897005 -195 189 C-198.52530607 185.15389342 -201.84140676 181.15328835 -205 177 C-205.69778564 176.14889648 -206.39557129 175.29779297 -207.11450195 174.42089844 C-209.60730158 169.89816008 -209.46776373 166.54380064 -209.2890625 161.4765625 C-209.27162994 160.52609039 -209.25419739 159.57561829 -209.23623657 158.59634399 C-209.19560215 156.5110207 -209.14577923 154.42586143 -209.0880127 152.34094238 C-208.99688956 148.88192821 -208.94170203 145.4237331 -208.89355469 141.96386719 C-208.79998463 135.71407549 -208.65018572 129.46724388 -208.47509766 123.21923828 C-208.40790666 120.63877646 -208.35206833 118.05799602 -208.30712891 115.47705078 C-208.23972149 111.67881011 -208.13534486 107.88309697 -208.0234375 104.0859375 C-208.01065765 102.94820892 -207.99787781 101.81048035 -207.98471069 100.63827515 C-207.71460003 93.20607469 -206.00314146 87.99858678 -202.31314087 81.5330658 C-200.61150383 78.25058584 -200.55158701 75.8261846 -201 72.1875 C-201.28965711 66.51560957 -201.28965711 66.51560957 -199.86328125 63.9765625 C-198.82438687 62.86177911 -197.75427547 61.77534055 -196.65625 60.71875 C-190.60409592 54.43821275 -188.74418261 45.2529616 -187 37 C-179.83865612 37.59368654 -173.22321907 39.05612409 -166.3125 41 C-165.22179199 41.30107666 -164.13108398 41.60215332 -163.00732422 41.91235352 C-155.57929877 44.04240949 -148.66545629 46.77904686 -141.625 49.9375 C-131.489318 54.36675125 -122.92784081 55.28298758 -112 54 C-111.25347168 53.91637207 -110.50694336 53.83274414 -109.73779297 53.74658203 C-93.28392391 51.73599163 -77.53273975 45.86559072 -64.75390625 35.1015625 C-63 34 -63 34 -59 34 C-58.67 36.97 -58.34 39.94 -58 43 C-41.88826908 36.1362939 -41.88826908 36.1362939 -27 27 C-26.23945313 26.44828125 -25.47890625 25.8965625 -24.6953125 25.328125 C-22.41277177 23.60634687 -20.20011998 21.82579402 -18 20 C-17.175 19.32195313 -16.35 18.64390625 -15.5 17.9453125 C-9.27815005 12.61500812 -4.54986471 6.79937883 0 0 Z " fill="#94D5FB" transform="translate(487,13)"/>
<path d="M0 0 C10.21422641 6.924665 18.10084086 16.76395035 20.7578125 29.01953125 C22.56385263 41.8624833 19.85273795 54.23560833 13.07421875 65.26953125 C11.98281915 66.57200341 10.87884262 67.86405436 9.76171875 69.14453125 C6.38305017 73.38276035 6.93007167 76.78993424 7.26750183 82.00914001 C7.04707727 85.72736673 6.11695295 87.32466053 4.1496582 90.44360352 C-0.27872963 98.89918843 0.03026478 107.40100088 -0.1328125 116.734375 C-0.18659021 118.61755083 -0.24293096 120.500655 -0.30168152 122.38368225 C-0.4492118 127.32182373 -0.56352048 132.26016913 -0.67016602 137.19934082 C-0.78254223 142.16141531 -0.92410368 147.12263519 -1.06445312 152.08398438 C-1.22252373 157.70031292 -1.3784055 163.31653468 -1.50898743 168.93357849 C-1.73811913 178.63401117 -2.07514324 188.31997402 -2.57616901 198.01053524 C-2.8645219 203.63002385 -3.05430136 209.24546596 -3.171875 214.87109375 C-3.20021423 216.22133888 -3.20021423 216.22133888 -3.22912598 217.59886169 C-3.24181519 218.31445755 -3.25450439 219.03005341 -3.26757812 219.76733398 C-3.64309464 240.08626699 -4.24523562 260.39635384 -4.92578125 280.70703125 C-4.96766571 281.98660706 -5.00955017 283.26618286 -5.05270386 284.58453369 C-5.17389342 288.27001237 -5.29916049 291.95532934 -5.42578125 295.640625 C-5.46119522 296.72446976 -5.49660919 297.80831451 -5.53309631 298.92500305 C-5.79717677 306.3921192 -6.30163324 313.82411391 -6.92578125 321.26953125 C-10.67872486 322.39296642 -14.43226876 323.51433993 -18.18676758 324.63256836 C-20.08786704 325.19945304 -21.98827464 325.76865627 -23.88867188 326.33789062 C-25.69174805 326.87446289 -25.69174805 326.87446289 -27.53125 327.421875 C-28.63621826 327.75179443 -29.74118652 328.08171387 -30.87963867 328.42163086 C-33.55325337 329.16583731 -36.19738488 329.77002825 -38.92578125 330.26953125 C-39.21933815 322.79043762 -39.51057604 315.31125565 -39.80078125 307.83203125 C-39.84557617 306.68007263 -39.89037109 305.52811401 -39.93652344 304.34124756 C-40.46521705 290.71543529 -40.97434117 277.0892805 -41.43359375 263.4609375 C-41.47444092 262.25346863 -41.51528809 261.04599976 -41.55737305 259.80194092 C-41.89227702 249.89757032 -41.89227702 249.89757032 -42.04821777 245.22906494 C-42.6144593 228.20506114 -42.6144593 228.20506114 -43.49609375 211.1953125 C-43.54284744 210.43360245 -43.58960114 209.6718924 -43.63777161 208.88710022 C-43.73013876 207.39187731 -43.82265009 205.8966633 -43.91531372 204.40145874 C-45.09815278 185.24074508 -45.07654378 166.1087361 -44.93994141 146.91577148 C-44.85687894 133.99099056 -45.03907747 121.16641724 -45.92578125 108.26953125 C-46.58578125 107.93953125 -47.24578125 107.60953125 -47.92578125 107.26953125 C-48.02890625 105.97015625 -48.13203125 104.67078125 -48.23828125 103.33203125 C-48.65306975 98.42500502 -50.37723294 94.88497186 -52.76953125 90.62890625 C-54.89891172 86.28381908 -54.94895391 82.70077799 -54.55078125 77.95703125 C-54.49712706 73.49777176 -55.05118081 71.46092632 -58.11328125 68.20703125 C-58.75007812 67.57667969 -59.386875 66.94632812 -60.04296875 66.296875 C-68.16149712 57.5551401 -69.55516099 45.71088953 -69.23828125 34.3125 C-68.58324202 22.72649361 -63.05718752 12.98011247 -54.80078125 5.08203125 C-39.54271701 -7.87048508 -17.36662135 -10.27157978 0 0 Z " fill="#EAE9EB" transform="translate(279.92578125,6.73046875)"/>
<path d="M0 0 C0.24234375 0.845625 0.4846875 1.69125 0.734375 2.5625 C4.3050595 14.78842574 4.3050595 14.78842574 11.75 24.8125 C14.75550273 28.06633876 15.39922758 29.95413295 15.25 34.375 C15.18683594 35.303125 15.12367188 36.23125 15.05859375 37.1875 C14.94393034 42.69134387 16.67335412 47.98546367 19.6875 52.5625 C21.67820012 56.2595145 21.24199605 59.88606715 21 64 C21.99 64.33 22.98 64.66 24 65 C24.82457502 78.5817117 25.36085896 92.15751272 25.51489258 105.76416016 C25.54684588 107.93600175 25.59491332 110.10766135 25.65844727 112.27880859 C26.28659181 134.20646524 26.28659181 134.20646524 19.10083008 142.01074219 C18.40755615 142.66719727 17.71428223 143.32365234 17 144 C16.03514147 145.12091391 15.07693056 146.24762534 14.12890625 147.3828125 C11.43034418 150.26620758 8.72290941 153.13956991 6 156 C5.28199219 156.7940625 4.56398437 157.588125 3.82421875 158.40625 C-0.58516607 163.12288009 -5.40014356 166.95472556 -10.6875 170.625 C-11.3175293 171.07568848 -11.94755859 171.52637695 -12.59667969 171.99072266 C-15.63825846 174.01977797 -17.57767047 175.00504575 -21.26953125 174.9609375 C-24.07144851 173.97485503 -25.37764551 173.4724238 -27 171 C-27.328125 168.73046875 -27.328125 168.73046875 -27.25 166.1875 C-27.22421875 165.29675781 -27.1984375 164.40601563 -27.171875 163.48828125 C-26.97340853 160.61502805 -26.49325911 157.83623991 -26 155 C-25.91706737 152.32664244 -25.95386782 149.67566672 -26 147 C-30.03575616 148.46687078 -33.46955211 150.44578557 -37.125 152.6875 C-62.9218982 167.83248404 -94.07423773 171.11594615 -123 164 C-130.7765689 161.62001733 -130.7765689 161.62001733 -133.27734375 158.30859375 C-134.36423044 154.8364314 -133.89217936 152.51225037 -133 149 C-129.64804272 143.78654299 -125.32364095 138.28834951 -119.41015625 135.99609375 C-117.53087143 135.73393214 -115.64171829 135.53841549 -113.75 135.390625 C-98.61876082 133.81445425 -84.07312754 128.63112988 -71 121 C-70.13375 120.49597656 -69.2675 119.99195313 -68.375 119.47265625 C-50.51697537 108.28038734 -39.82791359 91.58183378 -34.76171875 71.4453125 C-33.1051601 63.9525703 -32.81377307 56.88500695 -32.81469727 49.22436523 C-32.81251715 47.20339688 -32.79434168 45.18298102 -32.77539062 43.16210938 C-32.76595084 36.82801276 -32.92344944 30.99990187 -34.5612793 24.8684082 C-35.18050926 22.23125357 -35.13806915 19.69234842 -35 17 C-36.08539063 17.144375 -37.17078125 17.28875 -38.2890625 17.4375 C-39.7343491 17.62519956 -41.17966307 17.81268838 -42.625 18 C-43.33785156 18.09539062 -44.05070312 18.19078125 -44.78515625 18.2890625 C-48.88821609 18.81606101 -52.85245742 19.10466984 -57 19 C-53.43246507 15.43246507 -48.37984075 14.10501943 -43.75 12.25 C-42.63858643 11.80406494 -41.52717285 11.35812988 -40.38208008 10.89868164 C-29.79271122 6.75024586 -19.03821864 3.6872165 -8 1 C-7.33331299 0.8131665 -6.66662598 0.62633301 -5.97973633 0.43383789 C-4 0 -4 0 0 0 Z " fill="#73CBF8" transform="translate(211,50)"/>
<path d="M0 0 C7.16074645 0.59363701 13.77783486 2.05353171 20.6875 4 C21.76443115 4.30107666 22.8413623 4.60215332 23.95092773 4.91235352 C34.97993557 8.1057889 45.50333571 12.37464575 56 17 C56 17.33 56 17.66 56 18 C49.62636697 18.20233756 44.16329076 17.58020342 38 16 C35.58077624 26.33163907 34.42565714 36.10487146 34.5 46.75 C34.50209473 47.44488525 34.50418945 48.13977051 34.50634766 48.85571289 C34.57814854 60.45953309 35.66196786 71.14976147 40 82 C40.27875977 82.70495605 40.55751953 83.40991211 40.84472656 84.13623047 C45.10965876 94.49156141 50.9684977 102.27694535 59 110 C59.65613281 110.66386719 60.31226563 111.32773438 60.98828125 112.01171875 C74.99066305 125.35445943 99.66649807 135.42257955 119 135.0625 C124.81750057 135.34516852 127.83399751 139.16551856 131.5625 143.16821289 C134.7835367 146.96996535 135.89601563 150.0434119 136 155 C135.37890625 157.3046875 135.37890625 157.3046875 134 159 C113.41956851 169.76514878 83.7106665 168.26346011 62.25 161.875 C52.38104355 158.76063588 42.36056803 154.61031027 33.7578125 148.81640625 C31.35659721 147.23486927 29.79659392 146.43024522 27 146 C27.144375 146.88300781 27.28875 147.76601562 27.4375 148.67578125 C30.08609022 165.79965275 30.08609022 165.79965275 29 171 C27.4140625 172.86328125 27.4140625 172.86328125 25 174 C12.39033647 173.72206078 0.36201198 160.64897005 -8 152 C-11.52530607 148.15389342 -14.84140676 144.15328835 -18 140 C-18.69778564 139.14889648 -19.39557129 138.29779297 -20.11450195 137.42089844 C-22.60730158 132.89816008 -22.46776373 129.54380064 -22.2890625 124.4765625 C-22.27162994 123.52609039 -22.25419739 122.57561829 -22.23623657 121.59634399 C-22.19560215 119.5110207 -22.14577923 117.42586143 -22.0880127 115.34094238 C-21.99688956 111.88192821 -21.94170203 108.4237331 -21.89355469 104.96386719 C-21.79998463 98.71407549 -21.65018572 92.46724388 -21.47509766 86.21923828 C-21.40790666 83.63877646 -21.35206833 81.05799602 -21.30712891 78.47705078 C-21.23972149 74.67881011 -21.13534486 70.88309697 -21.0234375 67.0859375 C-21.01065765 65.94820892 -20.99787781 64.81048035 -20.98471069 63.63827515 C-20.71460003 56.20607469 -19.00314146 50.99858678 -15.31314087 44.5330658 C-13.61150383 41.25058584 -13.55158701 38.8261846 -14 35.1875 C-14.28965711 29.51560957 -14.28965711 29.51560957 -12.86328125 26.9765625 C-11.82438687 25.86177911 -10.75427547 24.77534055 -9.65625 23.71875 C-3.60409592 17.43821275 -1.74418261 8.2529616 0 0 Z " fill="#73CBF8" transform="translate(300,50)"/>
<path d="M0 0 C10.21422641 6.924665 18.10084086 16.76395035 20.7578125 29.01953125 C22.56385263 41.8624833 19.85273795 54.23560833 13.07421875 65.26953125 C11.98281915 66.57200341 10.87884262 67.86405436 9.76171875 69.14453125 C7.05395108 72.54624943 6.8521372 74.59165818 7.13671875 78.89453125 C7.58573672 87.31896357 3.72230037 95.09698969 -1.7734375 101.3828125 C-3.42540568 102.84598432 -5.0707712 104.07927056 -6.92578125 105.26953125 C-7.73015625 105.84703125 -8.53453125 106.42453125 -9.36328125 107.01953125 C-16.98598529 110.73792346 -25.27538629 111.50331644 -33.42578125 109.20703125 C-42.2454411 105.8977348 -48.66244354 99.57942678 -52.92578125 91.26953125 C-54.82715354 86.64928845 -54.9199338 82.71685907 -54.61328125 77.76953125 C-54.5163162 73.36368157 -55.09469788 71.42728722 -58.11328125 68.20703125 C-58.75007812 67.57667969 -59.386875 66.94632812 -60.04296875 66.296875 C-68.16149712 57.5551401 -69.55516099 45.71088953 -69.23828125 34.3125 C-68.58324202 22.72649361 -63.05718752 12.98011247 -54.80078125 5.08203125 C-39.54271701 -7.87048508 -17.36662135 -10.27157978 0 0 Z " fill="#FBAC1F" transform="translate(279.92578125,6.73046875)"/>
<path d="M0 0 C0.495 3.96 0.495 3.96 1 8 C1.76441406 8.26103516 2.52882813 8.52207031 3.31640625 8.79101562 C51.50427158 25.34653374 51.50427158 25.34653374 58 37 C57.76852941 42.1402434 55.18452282 44.45338978 51.609375 47.83203125 C44.0592484 54.10496577 35.44204936 58.88594328 26.8125 63.5 C26.11713135 63.87334473 25.4217627 64.24668945 24.70532227 64.63134766 C20.78357951 66.68887389 16.84492161 68.5034026 12.73046875 70.14453125 C3.55178685 73.3243626 3.55178685 73.3243626 -2.41796875 80.234375 C-2.66899686 83.33402646 -2.59269647 85.95405555 -2 89 C-3.04671875 88.50113281 -4.0934375 88.00226563 -5.171875 87.48828125 C-6.69778726 86.7627486 -8.22384274 86.03751715 -9.75 85.3125 C-10.58402344 84.91603271 -11.41804688 84.51956543 -12.27734375 84.11108398 C-17.44632892 81.66131694 -22.62911402 79.24480357 -27.828125 76.859375 C-81.55630394 52.19436155 -81.55630394 52.19436155 -87.0625 39.5625 C-86.98662398 36.45158333 -86.05872884 34.91805959 -83.94921875 32.6640625 C-77.37266389 27.04960885 -69.57317786 23.07023328 -61.6875 19.6328125 C-61.00237839 19.33408737 -60.31725677 19.03536224 -59.6113739 18.72758484 C-51.51009808 15.26883335 -43.18351158 12.53393998 -34.8125 9.8125 C-33.26084355 9.30080946 -31.7094105 8.78844094 -30.15820312 8.27539062 C-25.778351 6.83072007 -21.39055467 5.41174846 -17 4 C-16.34819763 3.78857361 -15.69639526 3.57714722 -15.02484131 3.35931396 C-13.23083121 2.77880184 -11.43384994 2.20749544 -9.63671875 1.63671875 C-8.63729248 1.31791748 -7.63786621 0.99911621 -6.6081543 0.6706543 C-4 0 -4 0 0 0 Z " fill="#5F74DC" transform="translate(272,350)"/>
<path d="M0 0 C4.40906562 3.41216292 7.97739773 7.46270192 10.125 12.64453125 C10.37136612 15.34470394 10.21565666 17.92483131 10.125 20.64453125 C11.176875 20.73734375 11.176875 20.73734375 12.25 20.83203125 C16.02759683 21.89961296 18.84939121 23.43902252 21.125 26.64453125 C22.2358628 31.25502951 21.75449982 34.60260051 19.3125 38.64453125 C15.49128467 42.13821384 12.10509296 41.80262944 7.125 41.64453125 C5.95517578 41.46277344 5.95517578 41.46277344 4.76171875 41.27734375 C-1.76429761 40.28270984 -6.24341635 41.09743971 -11.875 44.64453125 C-13.99034437 46.48942063 -14.77232368 47.28983123 -15.5625 50.01953125 C-14.57174191 53.80242577 -12.33694281 54.4646121 -9.08911133 56.39990234 C-5.91302062 58.18529329 -2.70345469 59.78842929 0.625 61.26953125 C1.35187012 61.594375 2.07874023 61.91921875 2.82763672 62.25390625 C15.9124017 67.89636829 29.61544472 72.1471503 43.125 76.64453125 C43.125 79.94453125 43.125 83.24453125 43.125 86.64453125 C26.17214016 93.96508436 26.17214016 93.96508436 19.96875 93.3125 C17.375 92.14453125 17.375 92.14453125 14.59375 90.55859375 C9.88100044 87.95809005 4.93620885 86.32149474 -0.125 84.51953125 C-21.2018716 76.74014167 -44.86357856 67.8133229 -61.875 52.64453125 C-62.65488281 51.95746094 -63.43476563 51.27039063 -64.23828125 50.5625 C-71.81756933 43.47940099 -76.07691979 37.07777067 -76.4375 26.51953125 C-75.94939026 15.74625208 -71.31876422 10.29748455 -63.66015625 3.12890625 C-46.30430629 -12.35260928 -19.16319069 -12.44977027 0 0 Z " fill="#FAAB20" transform="translate(197.875,250.35546875)"/>
<path d="M0 0 C7.24821485 6.07125392 12.96088557 12.58147008 14.5078125 22.13671875 C15.02777695 31.68823954 12.02521542 38.21574396 5.94921875 45.4375 C-14.06178453 66.47926544 -50.09187729 81.63886004 -78 88 C-81.17972338 86.77147051 -82.65039982 85.42193125 -84.8125 82.8125 C-86.33029214 79.21772915 -87.09784468 75.81356572 -86 72 C-81.69453085 66.01316254 -74.83136965 64.1310166 -68.1875 61.5 C-56.88547241 57.50403689 -56.88547241 57.50403689 -47 51 C-46.33076238 47.28743547 -46.33076238 47.28743547 -47 44 C-47.59167969 43.81824219 -48.18335938 43.63648438 -48.79296875 43.44921875 C-55.61511476 41.2790418 -55.61511476 41.2790418 -58.5 39.1875 C-61.97313803 37.53775943 -64.10803006 38.4778684 -67.7265625 39.43359375 C-70.9582821 40.23874726 -73.69329972 40.38154234 -77 40 C-79.75329021 38.20437595 -81.52627461 36.94745078 -83 34 C-83.57721912 30.28095528 -84.07080846 26.53434635 -81.8359375 23.33203125 C-78.82119357 20.69606284 -75.96859308 19.35016998 -72 19 C-72.12375 17.2365625 -72.12375 17.2365625 -72.25 15.4375 C-72.21056836 9.83820681 -70.02026734 6.21041015 -66.33984375 2.18359375 C-49.12286415 -14.18491047 -18.52203501 -14.4884908 0 0 Z " fill="#FECA37" transform="translate(379,252)"/>
<path d="M0 0 C6.86994143 2.1175913 13.15155305 4.82130936 19.5625 8.0625 C20.52124023 8.54565674 21.47998047 9.02881348 22.46777344 9.52661133 C56.45408224 26.90816449 56.45408224 26.90816449 63 40 C63.66995724 44.78540883 63.06802649 47.38990762 60.25 51.1875 C59.2016527 52.48734476 58.11640919 53.7581228 57 55 C56.42594421 55.67363586 55.85188843 56.34727173 55.26043701 57.0413208 C48.34956109 63.02962698 34.58395101 61.2944379 25.921875 61.265625 C23.98384003 61.26849518 23.98384003 61.26849518 22.00665283 61.27142334 C19.29735422 61.27434163 16.58818912 61.27018213 13.87890625 61.26074219 C10.43073378 61.24930343 6.9828713 61.25595585 3.53470993 61.26788712 C0.20540754 61.27689974 -3.12381385 61.27057027 -6.453125 61.265625 C-7.67831848 61.26967346 -8.90351196 61.27372192 -10.16583252 61.27789307 C-20.02652563 61.22423806 -27.98179334 60.89806819 -35.3359375 53.79296875 C-38.49263405 50.39173937 -39.84642839 48.20663407 -40.4375 43.5625 C-39.49680681 35.9025697 -33.65690837 30.97761716 -27.83789062 26.34619141 C-23.96451877 23.5090803 -19.86008279 21.03822922 -15.75 18.5625 C-14.88632813 18.04220215 -14.02265625 17.5219043 -13.1328125 16.98583984 C-8.84856691 14.46984035 -4.83051047 12.31812949 0 11 C0 7.37 0 3.74 0 0 Z " fill="#6074DC" transform="translate(246,451)"/>
<path d="M0 0 C0.58007812 0.39832031 1.16015625 0.79664062 1.7578125 1.20703125 C10.43229362 7.09021894 17.36215062 10.92503038 28 10 C34.20193701 8.74039833 39.02812927 5.93772846 44.15234375 2.3046875 C46 1 46 1 48 0 C48.15290576 17.17867937 47.70613069 34.32404814 47.13116455 51.4909668 C47.03964153 54.25211465 46.95197147 57.01337918 46.86432838 59.77465248 C46.37402217 75.18990775 45.80090335 90.59743213 45 106 C44.21826416 105.2069043 43.43652832 104.41380859 42.63110352 103.59667969 C40.4460993 101.4402628 38.53233216 99.83888331 35.9375 98.25 C35.28652344 97.84265625 34.63554687 97.4353125 33.96484375 97.015625 C28.92096419 94.40845067 23.12357343 94.0124785 17.7265625 95.71875 C12.63072654 97.87534952 8.45516308 100.7436808 4 104 C2.95151409 84.57233691 2.91956452 65.17880735 3.03710938 45.72875977 C3.09610038 33.44699072 2.80936733 21.25613385 2 9 C1.34 8.67 0.68 8.34 0 8 C0 5.36 0 2.72 0 0 Z " fill="#D9D8DD" transform="translate(232,106)"/>
<path d="M0 0 C2.48535858 1.2052601 5.00902019 2.31270647 7.53417969 3.43212891 C17.67453232 8.01954838 27.57527463 12.59603445 36.01074219 19.97509766 C36.69007813 20.55775391 37.36941406 21.14041016 38.06933594 21.74072266 C44.30779018 27.4992958 47.59551627 34.15847707 48.32324219 42.60009766 C48.12365947 51.58132008 43.66970629 58.22989517 37.60839844 64.53759766 C25.16286184 76.21581546 9.85815478 83.75082857 -5.34863281 91.17431641 C-7.6026703 92.27617326 -9.79990066 93.41717102 -12.00488281 94.61962891 C-18.14875043 97.95828751 -18.14875043 97.95828751 -22.11425781 98.03759766 C-25.92330872 96.62990493 -29.40628866 94.89013289 -32.98925781 92.97509766 C-32.98925781 89.01509766 -32.98925781 85.05509766 -32.98925781 80.97509766 C-17.42214543 72.65208708 -17.42214543 72.65208708 -9.78100586 68.88769531 C11.30269851 59.72301731 11.30269851 59.72301731 26.05371094 43.48681641 C25.99052777 39.79347328 24.60035412 38.55241712 22.01074219 35.97509766 C19.8562104 34.39605265 17.79896991 33.01035342 15.51074219 31.66259766 C14.86347168 31.27869873 14.21620117 30.8947998 13.54931641 30.49926758 C-0.00026161 22.75005533 -15.27241165 18.00780153 -29.98925781 12.97509766 C-29.98925781 9.67509766 -29.98925781 6.37509766 -29.98925781 2.97509766 C-10.02352621 -4.86782965 -10.02352621 -4.86782965 0 0 Z " fill="#FD9321" transform="translate(302.9892578125,346.02490234375)"/>
<path d="M0 0 C12.24925282 -0.86805729 21.82136906 2.25778879 31.5234375 9.79296875 C40.31278682 17.6257485 46.26534861 27.92641095 47.22265625 39.75 C47.54122883 50.38755404 45.16818555 59.73290867 40 69 C27.320722 69.61351345 17.0276279 65.3705325 7.3125 57.3125 C-0.60212524 49.99181697 -6.30179923 39.37840922 -7.203125 28.5625 C-7.3894196 18.37839546 -5.76288576 8.54496855 0 0 Z " fill="#FECA37" transform="translate(254,1)"/>
<path d="M0 0 C50.09044726 16.01714828 50.09044726 16.01714828 58 29 C57.92200114 32.95994233 56.56305731 35.00530742 53.8125 37.75 C41.18622701 49.68227571 24.08877919 57.18582093 8.5625 64.5625 C7.83442139 64.90933838 7.10634277 65.25617676 6.35620117 65.61352539 C1.24756798 68 1.24756798 68 -1 68 C-1.13947443 45.31072838 -0.80631152 22.675367 0 0 Z " fill="#5E73DC" transform="translate(272,358)"/>
<path d="M0 0 C0.09840047 20.46275683 0.15514386 40.91878271 -0.4375 61.375 C-0.45714813 62.08645172 -0.47679626 62.79790344 -0.49703979 63.53091431 C-0.73805162 72.04662409 -1.18689659 80.51778502 -2 89 C-5.04218216 87.56358915 -8.08365123 86.12567446 -11.125 84.6875 C-11.9809375 84.28337891 -12.836875 83.87925781 -13.71875 83.46289062 C-15.39521428 82.66979406 -17.06507108 81.86255827 -18.72753906 81.04052734 C-21.15721594 79.85490374 -21.15721594 79.85490374 -24.5546875 79.01953125 C-27 77 -27 77 -27.56274414 74.44311523 C-27.86409892 70.95350658 -27.95523079 67.5021524 -28 64 C-28.10250766 61.6092462 -28.20801216 59.21861915 -28.31640625 56.828125 C-28.40258239 54.30222134 -28.48448337 51.77616884 -28.5625 49.25 C-28.58367889 48.58878143 -28.60485779 47.92756287 -28.62667847 47.24630737 C-29.04110558 34.16370835 -29.11520275 21.08880464 -29 8 C-24.91972749 6.65717071 -20.83531809 5.32739205 -16.75 4 C-15.59113281 3.6184375 -14.43226563 3.236875 -13.23828125 2.84375 C-12.12324219 2.4828125 -11.00820313 2.121875 -9.859375 1.75 C-8.83295898 1.41484375 -7.80654297 1.0796875 -6.74902344 0.734375 C-4 0 -4 0 0 0 Z " fill="#E9E8EB" transform="translate(272,350)"/>
<path d="M0 0 C7.62485346 3.24970692 7.62485346 3.24970692 9 6 C9.06996014 7.70702735 9.08440154 9.41668003 9.0625 11.125 C9.05347656 12.03507812 9.04445312 12.94515625 9.03515625 13.8828125 C9.02355469 14.58148438 9.01195312 15.28015625 9 16 C8.05640625 16.4846875 7.1128125 16.969375 6.140625 17.46875 C-15.30631983 27.71634282 -15.30631983 27.71634282 -30 45 C-30.5442191 48.53742416 -30.61136705 50.9380475 -28.796875 54.08984375 C-26.15393644 57.67382862 -23.27615737 60.97585473 -20 64 C-26.63610613 63.39427023 -32.91467598 62.24248798 -39.375 60.625 C-40.26316406 60.41617188 -41.15132812 60.20734375 -42.06640625 59.9921875 C-42.91847656 59.78078125 -43.77054688 59.569375 -44.6484375 59.3515625 C-45.41333496 59.16416504 -46.17823242 58.97676758 -46.96630859 58.78369141 C-49.30458953 57.88262516 -50.45444194 56.96198095 -52 55 C-53.69751906 45.11754407 -51.45595645 37.21905886 -46 29 C-37.62954043 17.43016477 -25.06303961 10.1796107 -13 3 C-12.28585938 2.53078125 -11.57171875 2.0615625 -10.8359375 1.578125 C-6.8114518 -1.01031074 -4.56384388 -1.49023474 0 0 Z " fill="#FC9321" transform="translate(237,446)"/>
<path d="M0 0 C0.24234375 0.845625 0.4846875 1.69125 0.734375 2.5625 C4.3050595 14.78842574 4.3050595 14.78842574 11.75 24.8125 C14.75550273 28.06633876 15.39922758 29.95413295 15.25 34.375 C15.18683594 35.303125 15.12367188 36.23125 15.05859375 37.1875 C14.94329503 42.72183848 16.71105246 47.9949705 19.6875 52.625 C21.63292809 56.14529844 21.20257141 59.01609555 21 63 C7.16386243 57.80843006 -4.52919739 46.18171674 -12.6640625 34.08203125 C-13.38057983 33.01674194 -13.38057983 33.01674194 -14.11157227 31.92993164 C-15.05918891 30.50619463 -15.99516366 29.07462067 -16.91772461 27.63452148 C-20.3814217 22.38486546 -23.87712883 19.04095706 -30 17 C-36.2689587 16.70147816 -41.94852045 17.3756184 -48.10546875 18.5625 C-51.11321788 19.01711255 -53.96282997 19.07199218 -57 19 C-53.43246507 15.43246507 -48.37984075 14.10501943 -43.75 12.25 C-42.63858643 11.80406494 -41.52717285 11.35812988 -40.38208008 10.89868164 C-29.79271122 6.75024586 -19.03821864 3.6872165 -8 1 C-7.33331299 0.8131665 -6.66662598 0.62633301 -5.97973633 0.43383789 C-4 0 -4 0 0 0 Z " fill="#5E73DC" transform="translate(211,50)"/>
<path d="M0 0 C7.16074645 0.59363701 13.77783486 2.05353171 20.6875 4 C21.76443115 4.30107666 22.8413623 4.60215332 23.95092773 4.91235352 C34.97993557 8.1057889 45.50333571 12.37464575 56 17 C56 17.33 56 17.66 56 18 C51.24783862 18.15086227 47.10618723 18.14794426 42.5 16.9375 C36.48496838 15.4783562 31.41180517 15.6418056 25.96875 18.70703125 C22.84650031 21.11855831 21.23392281 23.21421345 19.1875 26.5625 C15.20861188 32.78045824 10.85845243 38.44508547 6 44 C5.32582031 44.77085938 4.65164063 45.54171875 3.95703125 46.3359375 C-2.40854641 53.14340329 -10.01201864 58.27040411 -18 63 C-18.66 63 -19.32 63 -20 63 C-20.60754092 56.92459085 -20.02475903 53.58948073 -17 48.25 C-14.41822369 43.57053043 -13.70607075 40.52109118 -14 35.1875 C-14.28965711 29.51560957 -14.28965711 29.51560957 -12.86328125 26.9765625 C-11.82438687 25.86177911 -10.75427547 24.77534055 -9.65625 23.71875 C-3.60409592 17.43821275 -1.74418261 8.2529616 0 0 Z " fill="#5E73DC" transform="translate(300,50)"/>
<path d="M0 0 C3.64476476 1.1376084 6.90585273 2.34073568 10.171875 4.3203125 C10.9141333 4.76930908 11.6563916 5.21830566 12.42114258 5.6809082 C13.18966553 6.1574585 13.95818848 6.63400879 14.75 7.125 C15.54623779 7.61637451 16.34247559 8.10774902 17.1628418 8.61401367 C35.5650949 20.13018979 35.5650949 20.13018979 40 29 C40.66995724 33.78540883 40.06802649 36.38990762 37.25 40.1875 C36.2016527 41.48734476 35.11640919 42.7581228 34 44 C33.08347656 45.06927734 33.08347656 45.06927734 32.1484375 46.16015625 C24.52519278 52.68842582 8.59558892 50.19385028 -1 50 C-1.19126428 33.31750448 -0.60142352 16.66870881 0 0 Z " fill="#5F73DC" transform="translate(269,462)"/>
<path d="M0 0 C5.75743647 1.68752448 10.99509152 3.89677168 16.3359375 6.62109375 C16.97942139 6.94621948 17.62290527 7.27134521 18.28588867 7.60632324 C19.85865183 8.40146673 21.42952285 9.20035093 23 10 C23.10258152 27.03957943 23.13409807 43.988529 22 61 C15.4 61 8.8 61 2 61 C1.71261238 53.92002254 1.42786983 46.8399453 1.14550781 39.75976562 C1.04921818 37.35446343 0.95222367 34.94918935 0.85449219 32.54394531 C0.71360989 29.07364046 0.57531787 25.60324024 0.4375 22.1328125 C0.39375244 21.06886261 0.35000488 20.00491272 0.30493164 18.90872192 C0.05741728 12.60177471 -0.05512881 6.31170127 0 0 Z " fill="#EAE9EB" transform="translate(246,451)"/>
<path d="M0 0 C4.18066743 1.48346264 7.89162815 3.57122189 11.71875 5.78125 C16.54597112 8.36017635 20.87659937 9.41376067 26.3125 10.125 C27.56675781 10.29257813 28.82101563 10.46015625 30.11328125 10.6328125 C31.06589844 10.75398438 32.01851563 10.87515625 33 11 C32.51273437 11.91910156 32.02546875 12.83820313 31.5234375 13.78515625 C29.14175797 18.81111075 29.47602672 22.40050262 31.1875 27.625 C33.05842245 31.10878663 35.06242639 33.38000192 38 36 C30.90564611 38.36478463 23.64744904 37.22613675 17 34 C9.31857336 29.29942549 3.1956544 22.85591091 0.625 14.0625 C-0.31360555 9.41640251 -0.17397976 4.71678459 0 0 Z " fill="#FD9422" transform="translate(225,80)"/>
<path d="M0 0 C3.2925589 0.97618356 6.5838875 1.95645214 9.875 2.9375 C10.81214844 3.21529297 11.74929687 3.49308594 12.71484375 3.77929688 C13.61074219 4.04677734 14.50664062 4.31425781 15.4296875 4.58984375 C16.25710449 4.83597412 17.08452148 5.08210449 17.93701172 5.33569336 C20 6 20 6 22 7 C22 10.3 22 13.6 22 17 C18.86591 18.29103996 15.72472614 19.53152754 12.5625 20.75 C11.68400391 21.11738281 10.80550781 21.48476563 9.90039062 21.86328125 C4.85055991 23.76395554 1.88461009 24.44524337 -3.16015625 22.203125 C-4.45788228 21.50064336 -5.74543235 20.77693843 -7 20 C-6.01 19.34 -5.02 18.68 -4 18 C-1.14691542 16.06531289 -1.14691542 16.06531289 1 13 C1.65892365 8.4671846 1.44731488 4.34194463 0 0 Z " fill="#FD9421" transform="translate(219,320)"/>
<path d="M0 0 C3.96521923 0.34987229 6.83057241 1.68273103 9.82421875 4.34375 C11.7651426 7.07780884 11.68802879 9.57762754 11.46484375 12.84375 C10.77428803 16.04700006 9.39175425 17.81325326 7 20 C0.72678869 22.09107044 -4.83977593 20.7291857 -11 19 C-10.60167969 18.54109375 -10.20335937 18.0821875 -9.79296875 17.609375 C-8.6987573 16.34211308 -7.61043778 15.06974547 -6.52734375 13.79296875 C-5.45399781 12.53295395 -4.35946222 11.29083317 -3.25 10.0625 C-1.3298924 6.89432246 -0.78246513 3.61137753 0 0 Z " fill="#FA5355" transform="translate(208,271)"/>
<path d="M0 0 C0.22042969 0.96099609 0.22042969 0.96099609 0.4453125 1.94140625 C1.92363157 7.64228037 3.63778773 11.41926933 7.79296875 15.625 C9 17 9 17 9 19 C4.18772915 20.57135375 0.12352145 21.56928016 -5 21 C-7.75329021 19.20437595 -9.52627461 17.94745078 -11 15 C-11.47823278 11.91872804 -11.57808529 9.07074663 -11 6 C-8.21863888 2.34571939 -4.59281424 0 0 0 Z " fill="#FB5454" transform="translate(307,271)"/>
</svg>
